<!DOCTYPE svg PUBLIC "-//W3C//DTD SVG 1.1//EN" "http://www.w3.org/Graphics/SVG/1.1/DTD/svg11.dtd">
<!-- Uploaded to: SVG Repo, www.svgrepo.com, Transformed by: SVG Repo Mixer Tools -->
<svg fill="#000000" height="64px" width="64px" version="1.1" id="Layer_1" xmlns="http://www.w3.org/2000/svg" xmlns:xlink="http://www.w3.org/1999/xlink" viewBox="0 0 512 512" xml:space="preserve">
<g id="SVGRepo_bgCarrier" stroke-width="0"/>
<g id="SVGRepo_tracerCarrier" stroke-linecap="round" stroke-linejoin="round"/>
<g id="SVGRepo_iconCarrier"> <g> <g> <path d="M459.671,470.042c-0.014-0.053-0.028-0.107-0.042-0.159l-24.83-93.661c-3.713-15.092-17.146-25.625-32.695-25.625h-14.973 c2.973-4.639,4.809-10.028,5.113-15.83c0.47-8.983-2.533-17.531-8.477-24.19c9.732-5.572,16.421-15.531,17.029-27.117 c0.47-8.983-2.533-17.531-8.477-24.19c9.732-5.572,16.421-15.531,17.029-27.117c0.465-8.873-2.461-17.323-8.26-23.944 c2.794-1.608,5.367-3.617,7.615-5.987c6.42-6.765,9.686-15.634,9.197-24.973c-0.339-6.465-2.571-12.423-6.169-17.394 c11.261-3.441,20.294-12.317,23.07-23.59l24.831-94.157c0.013-0.049,0.026-0.099,0.039-0.15 c2.57-10.561,0.197-21.838-6.347-30.164C447.432,4.299,438.816,0,429.682,0h-38.969c-35.79,0-67.259,45.063-85.094,119.716 h-58.765c-12.113,0-23.786,4.293-32.873,12.087c-15.479,13.278-36.59,29.249-64.781,37.715c-3.255-4.267-8.377-7.038-14.146-7.038 h-65.94c-9.817,0-17.802,7.986-17.802,17.802v168.554c0,9.817,7.986,17.802,17.802,17.802h65.94 c6.426,0,12.051-3.434,15.181-8.551h26.799c12.241,0,24.569,1.021,36.643,3.032l13.61,2.268c12.942,2.157,26.157,3.25,39.278,3.25 h33.683c7.484,41.098,19.01,76.072,33.435,101.371c16.41,28.779,36.13,43.99,57.03,43.99h38.969 c9.133,0,17.75-4.299,23.641-11.795C459.868,491.878,462.241,480.602,459.671,470.042z M136.826,348.837 c0,0.976-0.793,1.769-1.769,1.769h-65.94c-0.976,0-1.769-0.793-1.769-1.769V180.283c0-0.976,0.793-1.769,1.769-1.769h65.94 c0.976,0,1.769,0.793,1.769,1.769V348.837z M429.681,16.033c4.244,0,8.162,2.013,11.035,5.668 c3.516,4.473,4.78,10.598,3.391,16.398l-24.829,94.145c-0.013,0.049-0.026,0.099-0.037,0.149 c-1.83,7.52-9.343,12.976-17.864,12.976h-10.409l33.935-129.336H429.681z M390.715,16.033h17.613L374.39,145.377l-57.837-0.004 C331.203,67.603,360.549,16.033,390.715,16.033z M266.565,350.605c-12.238,0.001-24.565-1.02-36.64-3.031l-13.61-2.268 c-12.941-2.157-26.157-3.25-39.279-3.25h-24.178V185.157c31.51-9.233,54.68-26.702,71.563-41.186 c6.181-5.303,14.149-8.223,22.434-8.223h55.237c-1.072,5.308-2.08,10.742-3.02,16.305c-0.392,2.326,0.26,4.707,1.782,6.51 c1.523,1.802,3.763,2.841,6.123,2.841l75.844,0.006c10.029,0,18.582,7.481,19.063,16.677c0.257,4.903-1.453,9.554-4.815,13.097 c-3.365,3.547-7.91,5.5-12.797,5.5h-8.551c-4.427,0-8.017,3.589-8.017,8.017s3.589,8.017,8.017,8.017 c4.886,0,9.431,1.953,12.796,5.499c3.363,3.542,5.073,8.194,4.815,13.097c-0.482,9.196-9.033,16.677-19.063,16.677h-7.1 c-4.427,0-8.017,3.589-8.017,8.017c0,4.427,3.589,8.017,8.017,8.017c4.886,0,9.431,1.953,12.796,5.499 c3.363,3.542,5.073,8.194,4.815,13.097c-0.482,9.196-9.033,16.677-19.063,16.677h-7.1c-4.427,0-8.017,3.589-8.017,8.017 c0,4.427,3.589,8.017,8.017,8.017c4.886,0,9.431,1.953,12.796,5.499c3.363,3.542,5.073,8.194,4.815,13.097 c-0.479,9.14-8.932,16.579-18.883,16.668L266.565,350.605z M390.713,495.967c-30.084,0-59.517-51.648-74.158-129.328l58.051-0.009 l33.735,129.336H390.713z M440.716,490.298c-2.873,3.655-6.792,5.668-11.034,5.668h-4.769L391.177,366.63h10.927 c8.16,0,15.207,5.538,17.137,13.467c0.013,0.052,0.026,0.106,0.041,0.158l24.827,93.649 C445.496,479.703,444.231,485.827,440.716,490.298z"/> </g> </g> <g> <g> <path d="M102.087,290.739c-13.851,0-25.119,11.268-25.119,25.119c0,13.851,11.268,25.119,25.119,25.119 c13.851,0,25.119-11.268,25.119-25.119C127.206,302.007,115.937,290.739,102.087,290.739z M102.087,324.944 c-5.01,0-9.086-4.076-9.086-9.086c0-5.01,4.076-9.086,9.086-9.086c5.01,0,9.086,4.076,9.086,9.086 C111.172,320.868,107.096,324.944,102.087,324.944z"/> </g> </g> </g>
</svg>