<svg width="0" height="0" class="hidden">
  <symbol fill="none" xmlns="http://www.w3.org/2000/svg" viewBox="0 0 24 24" id="search">
    <g id="SVGRepo_bgCarrier" stroke-width="0"></g>
    <g id="SVGRepo_tracerCarrier" strokeLinecap="round" strokeLinejoin="round"></g>
    <g id="SVGRepo_iconCarrier">
      <g clip-path="url(#clip0_15_152)">
        <circle cx="10.5" cy="10.5" r="6.5" stroke="#000000" stroke-linejoin="round"></circle>
        <path d="M19.6464 20.3536C19.8417 20.5488 20.1583 20.5488 20.3536 20.3536C20.5488 20.1583 20.5488 19.8417 20.3536 19.6464L19.6464 20.3536ZM20.3536 19.6464L15.3536 14.6464L14.6464 15.3536L19.6464 20.3536L20.3536 19.6464Z" fill="#000000"></path>
      </g>
      <defs>
        <clipPath id="clip0_15_152">
          <rect width="24" height="24" fill="white"></rect>
        </clipPath>
      </defs>
    </g>
  </symbol>
  <symbol xmlns="http://www.w3.org/2000/svg" stroke-width="3" fill="none" viewBox="-6.4 -6.4 76.80 76.80" id="account">
    <circle cx="32" cy="18.14" r="11.14"></circle>
    <path d="M54.55,56.85A22.55,22.55,0,0,0,32,34.3h0A22.55,22.55,0,0,0,9.45,56.85Z"></path>
  </symbol>
  <symbol class="header-cart-icon" fill="none" xmlns="http://www.w3.org/2000/svg" viewBox="0 0 24 24" id="cart">
    <path d="M9 9H6.84713C6.35829 9 5.9411 9.35341 5.86073 9.8356L4.19407 19.8356C4.09248 20.4451 4.56252 21 5.18046 21H18.8195C19.4375 21 19.9075 20.4451 19.8059 19.8356L18.1393 9.8356C18.0589 9.35341 17.6417 9 17.1529 9H15M9 9H15M9 9C8.66667 7.66667 8 3 12 3C16 3 15.3333 7.66667 15 9"></path>
  </symbol>
  <symbol version="1.1" xmlns="http://www.w3.org/2000/svg" viewBox="0 0 32 32" id="catalog">
    <path d="M3 9.75h5c0.966-0.001 1.749-0.784 1.75-1.75v-5c-0.001-0.966-0.784-1.749-1.75-1.75h-5c-0.966 0.001-1.749 0.784-1.75 1.75v5c0.001 0.966 0.784 1.749 1.75 1.75h0zM2.75 3c0-0.138 0.112-0.25 0.25-0.25h5c0.138 0 0.25 0.112 0.25 0.25v5c-0 0.138-0.112 0.25-0.25 0.25h-5c-0.138-0-0.25-0.112-0.25-0.25v-0zM13.5 9.75h5c0.966-0.001 1.749-0.784 1.75-1.75v-5c-0.001-0.966-0.784-1.749-1.75-1.75h-5c-0.966 0.001-1.749 0.784-1.75 1.75v5c0.001 0.966 0.784 1.749 1.75 1.75h0zM13.25 3c0-0.138 0.112-0.25 0.25-0.25h5c0 0 0 0 0 0 0.138 0 0.25 0.112 0.25 0.25 0 0 0 0 0 0v0 5c0 0 0 0 0 0 0 0.138-0.112 0.25-0.25 0.25-0 0-0 0-0 0h-5c-0.138-0-0.25-0.112-0.25-0.25v-0zM24 9.723h4.973c0.966-0.001 1.749-0.784 1.75-1.75v-4.973c-0.001-0.966-0.784-1.749-1.75-1.75h-4.973c-0.966 0.001-1.749 0.784-1.75 1.75v4.973c0.001 0.966 0.784 1.749 1.75 1.75h0zM23.75 3c0-0 0-0 0-0 0-0.138 0.112-0.25 0.25-0.25 0 0 0 0 0 0h4.973c0 0 0 0 0 0 0.138 0 0.25 0.112 0.25 0.25 0 0 0 0 0 0v0 4.973c0 0 0 0 0 0 0 0.138-0.112 0.25-0.25 0.25-0 0-0 0-0 0h-4.973c-0 0-0 0-0 0-0.138 0-0.25-0.112-0.25-0.25 0-0 0-0 0-0v0zM3.014 20.25h5c0.966-0.001 1.749-0.784 1.75-1.75v-5c-0.001-0.966-0.784-1.749-1.75-1.75h-5c-0.966 0.001-1.749 0.784-1.75 1.75v5c0.001 0.966 0.784 1.749 1.75 1.75h0zM2.764 13.5c0-0.138 0.112-0.25 0.25-0.25h5c0.138 0 0.25 0.112 0.25 0.25v5c0 0 0 0 0 0 0 0.138-0.112 0.25-0.25 0.25-0 0-0 0-0 0h-5c-0 0-0 0-0 0-0.138 0-0.25-0.112-0.25-0.25 0-0 0-0 0-0v0zM13.514 20.25h5c0.966-0.001 1.749-0.784 1.75-1.75v-5c-0.001-0.966-0.784-1.749-1.75-1.75h-5c-0.966 0.001-1.749 0.784-1.75 1.75v5c0.001 0.966 0.784 1.749 1.75 1.75h0zM13.264 13.5c0-0.138 0.112-0.25 0.25-0.25h5c0 0 0 0 0 0 0.138 0 0.25 0.112 0.25 0.25 0 0 0 0 0 0v0 5c0 0 0 0 0 0.001 0 0.138-0.112 0.249-0.249 0.249-0 0-0.001 0-0.001 0h-5c-0 0-0 0-0 0-0.138 0-0.25-0.112-0.25-0.25 0-0 0-0 0-0v0zM24.014 20.223h4.973c0.966-0.001 1.749-0.784 1.75-1.75v-4.973c-0.001-0.966-0.784-1.749-1.75-1.75h-4.973c-0.966 0.001-1.749 0.784-1.75 1.75v4.973c0.001 0.966 0.784 1.749 1.75 1.75h0zM23.764 13.5c0-0 0-0 0-0 0-0.138 0.112-0.25 0.25-0.25 0 0 0 0 0 0h4.973c0 0 0 0 0 0 0.138 0 0.25 0.112 0.25 0.25 0 0 0 0 0 0v0 4.973c0 0 0 0 0 0.001 0 0.138-0.112 0.249-0.249 0.249-0 0-0.001 0-0.001 0h-4.973c-0 0-0 0-0.001 0-0.138 0-0.249-0.112-0.249-0.249 0-0 0-0.001 0-0.001v0zM8.027 22.25h-5c-0.966 0.001-1.749 0.784-1.75 1.75v5c0.001 0.966 0.784 1.749 1.75 1.75h5c0.966-0.001 1.749-0.784 1.75-1.75v-5c-0.001-0.966-0.784-1.749-1.75-1.75h-0zM8.277 29c0 0 0 0 0 0 0 0.138-0.112 0.25-0.25 0.25-0 0-0 0-0 0h-5c-0 0-0 0-0 0-0.138 0-0.25-0.112-0.25-0.25 0-0 0-0 0-0v0-5c0-0 0-0 0-0 0-0.138 0.112-0.25 0.25-0.25 0 0 0 0 0 0h5c0 0 0 0 0 0 0.138 0 0.25 0.112 0.25 0.25 0 0 0 0 0 0v0zM18.527 22.25h-5c-0.966 0.001-1.749 0.784-1.75 1.75v5c0.001 0.966 0.784 1.749 1.75 1.75h5c0.966-0.001 1.749-0.784 1.75-1.75v-5c-0.001-0.966-0.784-1.749-1.75-1.75h-0zM18.777 29c0 0 0 0 0 0.001 0 0.138-0.112 0.249-0.249 0.249-0 0-0.001 0-0.001 0h-5c-0 0-0 0-0 0-0.138 0-0.25-0.112-0.25-0.25 0-0 0-0 0-0v0-5c0-0 0-0 0-0 0-0.138 0.112-0.25 0.25-0.25 0 0 0 0 0 0h5c0 0 0 0 0.001 0 0.138 0 0.249 0.112 0.249 0.249 0 0 0 0.001 0 0.001v-0zM29 22.25h-4.973c-0.966 0.001-1.749 0.784-1.75 1.75v4.973c0.001 0.966 0.784 1.749 1.75 1.75h4.973c0.966-0.001 1.749-0.784 1.75-1.75v-4.973c-0.001-0.966-0.784-1.749-1.75-1.75h-0zM29.25 28.973c0 0 0 0 0 0.001 0 0.138-0.112 0.249-0.249 0.249-0 0-0.001 0-0.001 0h-4.973c-0 0-0 0-0.001 0-0.138 0-0.249-0.112-0.249-0.249 0-0 0-0.001 0-0.001v0-4.973c0-0 0-0 0-0.001 0-0.138 0.112-0.249 0.249-0.249 0 0 0.001 0 0.001 0h4.973c0 0 0 0 0.001 0 0.138 0 0.249 0.112 0.249 0.249 0 0 0 0.001 0 0.001v-0z"></path>
  </symbol>
</svg>