<svg width="0" height="0" class="hidden">
  <symbol id="clock" viewBox="0 0 24 24" fill="none" xmlns="http://www.w3.org/2000/svg">
    <g id="SVGRepo_bgCarrier" stroke-width="0"></g>
    <g id="SVGRepo_tracerCarrier" strokeLinecap="round" strokeLinejoin="round"></g>
    <g id="SVGRepo_iconCarrier">
      <circle cx="12" cy="12" r="9" stroke="#00558D" strokeLinecap="round" strokeLinejoin="round"></circle>
      <path d="M12 5.5V12H18" stroke="#00558D" strokeLinecap="round" strokeLinejoin="round"></path>
    </g>
  </symbol>
  <symbol version="1.1" xmlns="http://www.w3.org/2000/svg" xmlns:xlink="http://www.w3.org/1999/xlink" viewBox="0 0 32 32" id="mail">
    <g id="SVGRepo_bgCarrier" stroke-width="0"></g>
    <g id="SVGRepo_tracerCarrier" strokeLinecap="round" strokeLnejoin="round"></g>
    <g id="SVGRepo_iconCarrier">
      <g id="icomoon-ignore"></g>
      <path d="M28.244 7.47h-25.572v17.060h26.656v-17.060h-1.084zM27.177 8.536l-10.298 10.298c-0.47 0.47-1.289 0.47-1.759 0l-10.3-10.298h22.356zM3.738 8.961l6.923 6.922-6.923 6.923v-13.846zM4.589 23.464l6.827-6.826 2.951 2.95c0.436 0.436 1.016 0.677 1.633 0.677s1.197-0.241 1.633-0.677l2.951-2.951 6.826 6.826h-22.822zM28.262 22.807l-6.923-6.924 6.923-6.924v13.848z"></path>
    </g>
  </symbol>
  <symbol id="phone" viewBox="0 0 24 24" fill="none" xmlns="http://www.w3.org/2000/svg">
    <g id="SVGRepo_bgCarrier" stroke-width="0"></g>
    <g id="SVGRepo_tracerCarrier" strokeLinecap="round" strokeLinejoin="round"></g>
    <g id="SVGRepo_iconCarrier">
      <g clip-path="url(#clip0_15_529)">
        <path d="M2.01394 6.87134C1.34749 10.0618 3.85967 13.8597 7.01471 17.0147C10.1698 20.1698 13.9676 22.682 17.1581 22.0155C19.782 21.4674 21.1215 20.0697 21.8754 18.8788C22.1355 18.4678 22.0042 17.9344 21.6143 17.6436L17.9224 14.8897C17.5243 14.5928 16.9685 14.633 16.6174 14.9842L14.6577 16.9438C14.6577 16.9438 12.7529 16.3246 10.2288 13.8006C7.70482 11.2766 7.08564 9.37175 7.08564 9.37175L9.04529 7.4121C9.39648 7.06091 9.43671 6.5052 9.13975 6.10709L6.38585 2.4151C6.09505 2.02525 5.56163 1.89395 5.15068 2.15407C3.9597 2.90794 2.56203 4.24747 2.01394 6.87134Z" stroke="#00558D" strokeLinecap="round" strokeLinejoin="round"></path>
      </g>
    </g>
  </symbol>
  <symbol id="pin" viewBox="0 0 32 32" version="1.1" xmlns="http://www.w3.org/2000/svg">
    <g id="SVGRepo_bgCarrier" stroke-width="0"></g>
    <g id="SVGRepo_tracerCarrier" strokeLinecap="round" strokeLinejoin="round"></g>
    <g id="SVGRepo_iconCarrier">
      <path d="M15.961 1.25c-6.167 0.346-11.114 5.134-11.707 11.199l-0.004 0.051c0 4.65 9.998 16.633 11.138 17.984 0.138 0.163 0.343 0.265 0.572 0.266h0.001c0 0 0.001 0 0.001 0 0.228 0 0.432-0.102 0.569-0.263l0.001-0.001c1.148-1.352 11.218-13.334 11.218-17.986-0.62-6.132-5.597-10.924-11.758-11.249l-0.031-0.001zM15.963 28.832c-3.31-4.014-10.213-13.060-10.213-16.332 0.601-5.283 4.875-9.398 10.178-9.748l0.033-0.002c5.361 0.332 9.666 4.451 10.284 9.698l0.005 0.052c0 3.271-6.955 12.32-10.287 16.332zM19.232 8.521l-5.151 5.627-1.338-1.328c-0.135-0.13-0.318-0.21-0.521-0.21-0.414 0-0.75 0.336-0.75 0.75 0 0.204 0.082 0.389 0.214 0.525l-0-0 1.892 1.879 0.015 0.006 0.007 0.015c0.13 0.122 0.306 0.196 0.499 0.196 0.201 0 0.383-0.081 0.515-0.212l-0 0 0.024-0.010 0.004-0.010 0.017-0.012 5.677-6.204c0.123-0.133 0.198-0.311 0.198-0.507 0-0.414-0.335-0.749-0.749-0.749-0.219 0-0.417 0.094-0.554 0.244l-0.001 0.001z"></path>
    </g>
  </symbol> 
  <symbol fill="none" xmlns="http://www.w3.org/2000/svg" viewBox="0 0 24 24" id="search">
    <g id="SVGRepo_bgCarrier" stroke-width="0"></g>
    <g id="SVGRepo_tracerCarrier" strokeLinecap="round" strokeLinejoin="round"></g>
    <g id="SVGRepo_iconCarrier">
      <g clip-path="url(#clip0_15_152)">
        <circle cx="10.5" cy="10.5" r="6.5" stroke="#000000" strokeLinejoin="round"></circle>
        <path d="M19.6464 20.3536C19.8417 20.5488 20.1583 20.5488 20.3536 20.3536C20.5488 20.1583 20.5488 19.8417 20.3536 19.6464L19.6464 20.3536ZM20.3536 19.6464L15.3536 14.6464L14.6464 15.3536L19.6464 20.3536L20.3536 19.6464Z" fill="#000000"></path>
      </g>
      <defs>
        <clipPath id="clip0_15_152">
          <rect width="24" height="24" fill="white"></rect>
        </clipPath>
      </defs>
    </g>
  </symbol>
  <symbol xmlns="http://www.w3.org/2000/svg" stroke-width="3" fill="none" viewBox="-6.4 -6.4 76.80 76.80" id="account">
    <circle cx="32" cy="18.14" r="11.14"></circle>
    <path d="M54.55,56.85A22.55,22.55,0,0,0,32,34.3h0A22.55,22.55,0,0,0,9.45,56.85Z"></path>
  </symbol>
  <symbol fill="none" xmlns="http://www.w3.org/2000/svg" viewBox="0 0 24 24" id="cart">
    <path d="M9 9H6.84713C6.35829 9 5.9411 9.35341 5.86073 9.8356L4.19407 19.8356C4.09248 20.4451 4.56252 21 5.18046 21H18.8195C19.4375 21 19.9075 20.4451 19.8059 19.8356L18.1393 9.8356C18.0589 9.35341 17.6417 9 17.1529 9H15M9 9H15M9 9C8.66667 7.66667 8 3 12 3C16 3 15.3333 7.66667 15 9"></path>
  </symbol>
  <symbol version="1.1" xmlns="http://www.w3.org/2000/svg" viewBox="0 0 32 32" id="catalog">
    <path d="M3 9.75h5c0.966-0.001 1.749-0.784 1.75-1.75v-5c-0.001-0.966-0.784-1.749-1.75-1.75h-5c-0.966 0.001-1.749 0.784-1.75 1.75v5c0.001 0.966 0.784 1.749 1.75 1.75h0zM2.75 3c0-0.138 0.112-0.25 0.25-0.25h5c0.138 0 0.25 0.112 0.25 0.25v5c-0 0.138-0.112 0.25-0.25 0.25h-5c-0.138-0-0.25-0.112-0.25-0.25v-0zM13.5 9.75h5c0.966-0.001 1.749-0.784 1.75-1.75v-5c-0.001-0.966-0.784-1.749-1.75-1.75h-5c-0.966 0.001-1.749 0.784-1.75 1.75v5c0.001 0.966 0.784 1.749 1.75 1.75h0zM13.25 3c0-0.138 0.112-0.25 0.25-0.25h5c0 0 0 0 0 0 0.138 0 0.25 0.112 0.25 0.25 0 0 0 0 0 0v0 5c0 0 0 0 0 0 0 0.138-0.112 0.25-0.25 0.25-0 0-0 0-0 0h-5c-0.138-0-0.25-0.112-0.25-0.25v-0zM24 9.723h4.973c0.966-0.001 1.749-0.784 1.75-1.75v-4.973c-0.001-0.966-0.784-1.749-1.75-1.75h-4.973c-0.966 0.001-1.749 0.784-1.75 1.75v4.973c0.001 0.966 0.784 1.749 1.75 1.75h0zM23.75 3c0-0 0-0 0-0 0-0.138 0.112-0.25 0.25-0.25 0 0 0 0 0 0h4.973c0 0 0 0 0 0 0.138 0 0.25 0.112 0.25 0.25 0 0 0 0 0 0v0 4.973c0 0 0 0 0 0 0 0.138-0.112 0.25-0.25 0.25-0 0-0 0-0 0h-4.973c-0 0-0 0-0 0-0.138 0-0.25-0.112-0.25-0.25 0-0 0-0 0-0v0zM3.014 20.25h5c0.966-0.001 1.749-0.784 1.75-1.75v-5c-0.001-0.966-0.784-1.749-1.75-1.75h-5c-0.966 0.001-1.749 0.784-1.75 1.75v5c0.001 0.966 0.784 1.749 1.75 1.75h0zM2.764 13.5c0-0.138 0.112-0.25 0.25-0.25h5c0.138 0 0.25 0.112 0.25 0.25v5c0 0 0 0 0 0 0 0.138-0.112 0.25-0.25 0.25-0 0-0 0-0 0h-5c-0 0-0 0-0 0-0.138 0-0.25-0.112-0.25-0.25 0-0 0-0 0-0v0zM13.514 20.25h5c0.966-0.001 1.749-0.784 1.75-1.75v-5c-0.001-0.966-0.784-1.749-1.75-1.75h-5c-0.966 0.001-1.749 0.784-1.75 1.75v5c0.001 0.966 0.784 1.749 1.75 1.75h0zM13.264 13.5c0-0.138 0.112-0.25 0.25-0.25h5c0 0 0 0 0 0 0.138 0 0.25 0.112 0.25 0.25 0 0 0 0 0 0v0 5c0 0 0 0 0 0.001 0 0.138-0.112 0.249-0.249 0.249-0 0-0.001 0-0.001 0h-5c-0 0-0 0-0 0-0.138 0-0.25-0.112-0.25-0.25 0-0 0-0 0-0v0zM24.014 20.223h4.973c0.966-0.001 1.749-0.784 1.75-1.75v-4.973c-0.001-0.966-0.784-1.749-1.75-1.75h-4.973c-0.966 0.001-1.749 0.784-1.75 1.75v4.973c0.001 0.966 0.784 1.749 1.75 1.75h0zM23.764 13.5c0-0 0-0 0-0 0-0.138 0.112-0.25 0.25-0.25 0 0 0 0 0 0h4.973c0 0 0 0 0 0 0.138 0 0.25 0.112 0.25 0.25 0 0 0 0 0 0v0 4.973c0 0 0 0 0 0.001 0 0.138-0.112 0.249-0.249 0.249-0 0-0.001 0-0.001 0h-4.973c-0 0-0 0-0.001 0-0.138 0-0.249-0.112-0.249-0.249 0-0 0-0.001 0-0.001v0zM8.027 22.25h-5c-0.966 0.001-1.749 0.784-1.75 1.75v5c0.001 0.966 0.784 1.749 1.75 1.75h5c0.966-0.001 1.749-0.784 1.75-1.75v-5c-0.001-0.966-0.784-1.749-1.75-1.75h-0zM8.277 29c0 0 0 0 0 0 0 0.138-0.112 0.25-0.25 0.25-0 0-0 0-0 0h-5c-0 0-0 0-0 0-0.138 0-0.25-0.112-0.25-0.25 0-0 0-0 0-0v0-5c0-0 0-0 0-0 0-0.138 0.112-0.25 0.25-0.25 0 0 0 0 0 0h5c0 0 0 0 0 0 0.138 0 0.25 0.112 0.25 0.25 0 0 0 0 0 0v0zM18.527 22.25h-5c-0.966 0.001-1.749 0.784-1.75 1.75v5c0.001 0.966 0.784 1.749 1.75 1.75h5c0.966-0.001 1.749-0.784 1.75-1.75v-5c-0.001-0.966-0.784-1.749-1.75-1.75h-0zM18.777 29c0 0 0 0 0 0.001 0 0.138-0.112 0.249-0.249 0.249-0 0-0.001 0-0.001 0h-5c-0 0-0 0-0 0-0.138 0-0.25-0.112-0.25-0.25 0-0 0-0 0-0v0-5c0-0 0-0 0-0 0-0.138 0.112-0.25 0.25-0.25 0 0 0 0 0 0h5c0 0 0 0 0.001 0 0.138 0 0.249 0.112 0.249 0.249 0 0 0 0.001 0 0.001v-0zM29 22.25h-4.973c-0.966 0.001-1.749 0.784-1.75 1.75v4.973c0.001 0.966 0.784 1.749 1.75 1.75h4.973c0.966-0.001 1.749-0.784 1.75-1.75v-4.973c-0.001-0.966-0.784-1.749-1.75-1.75h-0zM29.25 28.973c0 0 0 0 0 0.001 0 0.138-0.112 0.249-0.249 0.249-0 0-0.001 0-0.001 0h-4.973c-0 0-0 0-0.001 0-0.138 0-0.249-0.112-0.249-0.249 0-0 0-0.001 0-0.001v0-4.973c0-0 0-0 0-0.001 0-0.138 0.112-0.249 0.249-0.249 0 0 0.001 0 0.001 0h4.973c0 0 0 0 0.001 0 0.138 0 0.249 0.112 0.249 0.249 0 0 0 0.001 0 0.001v-0z"></path>
  </symbol>
  <symbol version="1.1" id="telegram" xmlns="http://www.w3.org/2000/svg" xmlns:xlink="http://www.w3.org/1999/xlink" xml:space="preserve" viewBox="0 0 300 300">
    <g id="SVGRepo_bgCarrier" stroke-width="0"></g>
    <g id="SVGRepo_tracerCarrier" strokeLinecap="round" strokeLinejoin="round"></g>
    <g id="SVGRepo_iconCarrier">
      <g id="XMLID_496_">
        <path id="XMLID_497_" d="M5.299,144.645l69.126,25.8l26.756,86.047c1.712,5.511,8.451,7.548,12.924,3.891l38.532-31.412 c4.039-3.291,9.792-3.455,14.013-0.391l69.498,50.457c4.785,3.478,11.564,0.856,12.764-4.926L299.823,29.22 c1.31-6.316-4.896-11.585-10.91-9.259L5.218,129.402C-1.783,132.102-1.722,142.014,5.299,144.645z M96.869,156.711l135.098-83.207 c2.428-1.491,4.926,1.792,2.841,3.726L123.313,180.87c-3.919,3.648-6.447,8.53-7.163,13.829l-3.798,28.146 c-0.503,3.758-5.782,4.131-6.819,0.494l-14.607-51.325C89.253,166.16,91.691,159.907,96.869,156.711z"></path>
      </g>
    </g>
  </symbol>
  <symbol xmlns="http://www.w3.org/2000/svg" viewBox="0 0 16 16" id="whatsapp">
    <g id="SVGRepo_bgCarrier" stroke-width="0"></g>
    <g id="SVGRepo_tracerCarrier" strokeLinecap="round" strokeLinejoin="round"></g>
    <g id="SVGRepo_iconCarrier">
      <path d="M13.601 2.326A7.854 7.854 0 0 0 7.994 0C3.627 0 .068 3.558.064 7.926c0 1.399.366 2.76 1.057 3.965L0 16l4.204-1.102a7.933 7.933 0 0 0 3.79.965h.004c4.368 0 7.926-3.558 7.93-7.93A7.898 7.898 0 0 0 13.6 2.326zM7.994 14.521a6.573 6.573 0 0 1-3.356-.92l-.24-.144-2.494.654.666-2.433-.156-.251a6.56 6.56 0 0 1-1.007-3.505c0-3.626 2.957-6.584 6.591-6.584a6.56 6.56 0 0 1 4.66 1.931 6.557 6.557 0 0 1 1.928 4.66c-.004 3.639-2.961 6.592-6.592 6.592zm3.615-4.934c-.197-.099-1.17-.578-1.353-.646-.182-.065-.315-.099-.445.099-.133.197-.513.646-.627.775-.114.133-.232.148-.43.05-.197-.1-.836-.308-1.592-.985-.59-.525-.985-1.175-1.103-1.372-.114-.198-.011-.304.088-.403.087-.088.197-.232.296-.346.1-.114.133-.198.198-.33.065-.134.034-.248-.015-.347-.05-.099-.445-1.076-.612-1.47-.16-.389-.323-.335-.445-.34-.114-.007-.247-.007-.38-.007a.729.729 0 0 0-.529.247c-.182.198-.691.677-.691 1.654 0 .977.71 1.916.81 2.049.098.133 1.394 2.132 3.383 2.992.47.205.84.326 1.129.418.475.152.904.129 1.246.08.38-.058 1.171-.48 1.338-.943.164-.464.164-.86.114-.943-.049-.084-.182-.133-.38-.232z"></path>
    </g>
  </symbol>
</svg>
